<?xml version="1.0" encoding="UTF-8" standalone="no"?>
<!-- Created with Inkscape (http://www.inkscape.org/) -->

<svg
   xmlns:osb="http://www.openswatchbook.org/uri/2009/osb"
   xmlns:dc="http://purl.org/dc/elements/1.1/"
   xmlns:cc="http://creativecommons.org/ns#"
   xmlns:rdf="http://www.w3.org/1999/02/22-rdf-syntax-ns#"
   xmlns:svg="http://www.w3.org/2000/svg"
   xmlns="http://www.w3.org/2000/svg"
   xmlns:sodipodi="http://sodipodi.sourceforge.net/DTD/sodipodi-0.dtd"
   xmlns:inkscape="http://www.inkscape.org/namespaces/inkscape"
   version="1.1"
   id="svg2"
   xml:space="preserve"
   width="325.27045"
   height="377.42853"
   viewBox="0 0 325.27044 377.42852"
   sodipodi:docname="newsletter_template_sample_pic.svg"
   inkscape:export-filename="/home/tomas/auto_mat_software/klub_26_09_19/klub/apps/aklub/static/aklub/images/newsletter_template_sample_pic.png"
   inkscape:export-xdpi="96"
   inkscape:export-ydpi="96"
   inkscape:version="0.92.4 5da689c313, 2019-01-14"><metadata
     id="metadata8"><rdf:RDF><cc:Work
         rdf:about=""><dc:format>image/svg+xml</dc:format><dc:type
           rdf:resource="http://purl.org/dc/dcmitype/StillImage" /><dc:title></dc:title></cc:Work></rdf:RDF></metadata><defs
     id="defs6"><linearGradient
       inkscape:collect="always"
       id="linearGradient2643"
       osb:paint="gradient"><stop
         style="stop-color:#e00000;stop-opacity:1;"
         offset="0"
         id="stop2639" /><stop
         style="stop-color:#e00000;stop-opacity:0;"
         offset="1"
         id="stop2641" /></linearGradient><clipPath
       clipPathUnits="userSpaceOnUse"
       id="clipPath54"><path
         d="m 456.378,0 h 734.171 V 841.89 H 456.378 Z"
         id="path52"
         inkscape:connector-curvature="0" /></clipPath></defs><sodipodi:namedview
     pagecolor="#ffffff"
     bordercolor="#666666"
     borderopacity="1"
     objecttolerance="10"
     gridtolerance="10"
     guidetolerance="10"
     inkscape:pageopacity="0"
     inkscape:pageshadow="2"
     inkscape:window-width="1918"
     inkscape:window-height="1059"
     id="namedview4"
     showgrid="false"
     fit-margin-top="0"
     fit-margin-left="0"
     fit-margin-right="0"
     fit-margin-bottom="0"
     inkscape:zoom="1.6819299"
     inkscape:cx="346.48641"
     inkscape:cy="157.56107"
     inkscape:window-x="0"
     inkscape:window-y="19"
     inkscape:window-maximized="0"
     inkscape:current-layer="g10" /><g
     id="g10"
     inkscape:groupmode="layer"
     inkscape:label="AutoMat_manual_final"
     transform="matrix(1.3333333,0,0,-1.3333333,-166.34453,832.37261)"><g
       id="g48"
       transform="matrix(0.34824418,0,0,0.33623323,-45.890512,341.20808)"
       style="fill:#00aad4"><g
         id="g50"
         clip-path="url(#clipPath54)"
         style="fill:#00aad4"><g
           id="g56"
           transform="translate(557.266,441.2876)"
           style="fill:#00aad4"><path
             d="m 0,0 c -13.264,-0.629 -24.5,9.58 -25.098,22.804 -0.597,13.223 9.671,24.452 22.935,25.081 13.264,0.629 24.5,-9.581 25.098,-22.804 C 23.532,11.858 13.264,0.629 0,0"
             style="fill:#afc6e9;fill-opacity:1;fill-rule:nonzero;stroke:none"
             id="path58"
             inkscape:connector-curvature="0" /></g><g
           id="g60"
           transform="translate(613.4916,412.828)"
           style="fill:#00aad4"><path
             d="M 0,0 -10.347,9.401 -28.066,-7.092 -47.712,10.759 60.873,103.808 87.723,79.413 4.809,-36.961 l -19.646,17.85 z"
             style="fill:#0000ff;fill-opacity:1;fill-rule:nonzero;stroke:none"
             id="path62"
             inkscape:connector-curvature="0" /></g><g
           id="g64"
           transform="translate(707.1625,551.1735)"
           style="fill:#00aad4"><path
             d="m 0,0 c 13.264,0.629 24.5,-9.58 25.098,-22.804 0.597,-13.223 -9.671,-24.452 -22.935,-25.081 -13.264,-0.629 -24.5,9.581 -25.098,22.804 C -23.532,-11.858 -13.264,-0.629 0,0"
             style="fill:#00aad4;fill-opacity:1;fill-rule:nonzero;stroke:none"
             id="path66"
             inkscape:connector-curvature="0" /></g><g
           id="g68"
           transform="translate(755.9725,484.1865)"
           style="fill:#00aad4"><path
             d="M 0,0 10.347,-9.401 28.066,7.092 47.712,-10.759 -60.873,-103.808 -87.723,-79.413 -4.809,36.961 14.837,19.111 Z"
             style="fill:#00aad4;fill-opacity:1;fill-rule:nonzero;stroke:none"
             id="path70"
             inkscape:connector-curvature="0" /></g><g
           id="g72"
           transform="translate(662.3016,345.8411)"
           style="fill:#00aad4"><path
             d="m 0,0 c -13.264,-0.629 -24.5,9.58 -25.098,22.803 -0.597,13.224 9.671,24.453 22.935,25.082 13.264,0.629 24.5,-9.581 25.098,-22.804 C 23.532,11.858 13.264,0.629 0,0"
             style="fill:#00aad4;fill-opacity:1;fill-rule:nonzero;stroke:none"
             id="path74"
             inkscape:connector-curvature="0" /></g><g
           id="g76"
           transform="translate(718.7528,317.6284)"
           style="fill:#00aad4"><path
             d="M 0,0 -10.347,9.401 -28.066,-7.092 -47.712,10.759 60.873,103.808 87.723,79.413 4.809,-36.961 l -19.646,17.85 z"
             style="fill:#53676c;fill-opacity:1;fill-rule:nonzero;stroke:none"
             id="path78"
             inkscape:connector-curvature="0" /></g><g
           id="g80"
           transform="translate(812.4242,455.9739)"
           style="fill:#00aad4"><path
             d="m 0,0 c 13.264,0.629 24.5,-9.58 25.098,-22.804 0.597,-13.223 -9.671,-24.452 -22.935,-25.081 -13.264,-0.629 -24.5,9.58 -25.098,22.804 C -23.532,-11.858 -13.264,-0.629 0,0"
             style="fill:#0000d4;fill-opacity:1;fill-rule:nonzero;stroke:none"
             id="path82"
             inkscape:connector-curvature="0" /></g><g
           id="g84"
           transform="translate(861.0082,388.7399)"
           style="fill:#00aad4"><path
             d="M 0,0 10.347,-9.401 28.066,7.092 47.712,-10.759 -60.873,-103.808 -87.723,-79.413 -4.809,36.961 14.837,19.111 Z"
             style="fill:#ff6600;fill-opacity:1;fill-rule:nonzero;stroke:none"
             id="path86"
             inkscape:connector-curvature="0" /></g><g
           id="g88"
           transform="translate(767.3373,250.3944)"
           style="fill:#00aad4"><path
             d="m 0,0 c -13.264,-0.629 -24.5,9.581 -25.098,22.804 -0.597,13.223 9.671,24.452 22.935,25.081 13.264,0.629 24.5,-9.58 25.098,-22.803 C 23.532,11.858 13.264,0.629 0,0"
             style="fill:#00aad4;fill-opacity:1;fill-rule:nonzero;stroke:none"
             id="path90"
             inkscape:connector-curvature="0" /></g><g
           id="g92"
           transform="translate(612.5546,327.3644)"
           style="fill:#00aad4"><path
             d="M 0,0 10.347,-9.401 28.066,7.092 47.712,-10.759 -60.873,-103.808 -87.723,-79.413 -4.809,36.961 14.837,19.111 Z"
             style="fill:none;fill-opacity:1;fill-rule:nonzero;stroke:#2b6ce0;stroke-opacity:1;stroke-width:2.19179042;stroke-miterlimit:4;stroke-dasharray:none"
             id="path94"
             inkscape:connector-curvature="0" /></g><g
           id="g96"
           transform="translate(518.8837,189.0189)"
           style="fill:#00aad4"><path
             d="m 0,0 c -13.264,-0.629 -24.5,9.58 -25.098,22.804 -0.597,13.223 9.671,24.452 22.935,25.081 13.264,0.629 24.5,-9.581 25.098,-22.804 C 23.532,11.858 13.264,0.629 0,0"
             style="fill:#00aad4;fill-opacity:1;fill-rule:nonzero;stroke:none"
             id="path98"
             inkscape:connector-curvature="0" /></g><g
           id="g100"
           transform="translate(575.3348,160.8063)"
           style="fill:#00aad4"><path
             d="M 0,0 -10.347,9.401 -28.066,-7.092 -47.712,10.759 60.873,103.808 87.723,79.413 4.809,-36.961 l -19.646,17.85 z"
             style="fill:#3737c8;fill-opacity:1;fill-rule:nonzero;stroke:none"
             id="path102"
             inkscape:connector-curvature="0" /></g><g
           id="g104"
           transform="translate(669.0062,299.1517)"
           style="fill:#00aad4"><path
             d="m 0,0 c 13.264,0.629 24.5,-9.58 25.098,-22.804 0.597,-13.223 -9.671,-24.452 -22.935,-25.081 -13.264,-0.629 -24.5,9.581 -25.098,22.804 C -23.532,-11.858 -13.264,-0.629 0,0"
             style="fill:#217844;fill-opacity:1;fill-rule:nonzero;stroke:none"
             id="path106"
             inkscape:connector-curvature="0" /></g><g
           id="g108"
           transform="translate(717.5902,231.9177)"
           style="fill:#00aad4"><path
             d="M 0,0 10.347,-9.401 28.066,7.092 47.712,-10.759 -60.873,-103.808 -87.723,-79.413 -4.809,36.961 14.837,19.111 Z"
             style="fill:#00aad4;fill-opacity:1;fill-rule:nonzero;stroke:none"
             id="path110"
             inkscape:connector-curvature="0" /></g><g
           id="g112"
           transform="translate(623.9193,93.5723)"
           style="fill:#00aad4"><path
             d="m 0,0 c -13.264,-0.629 -24.5,9.581 -25.098,22.804 -0.597,13.223 9.671,24.452 22.935,25.081 13.264,0.629 24.5,-9.58 25.098,-22.803 C 23.532,11.858 13.264,0.629 0,0"
             style="fill:#3737c8;fill-opacity:1;fill-rule:nonzero;stroke:none"
             id="path114"
             inkscape:connector-curvature="0" /></g><g
           id="g116"
           transform="translate(537.7386,-93.0807)"
           style="fill:#00aad4"><path
             d="M 0,0 -10.347,9.401 -28.066,-7.092 -47.712,10.759 60.873,103.808 87.723,79.413 4.809,-36.961 l -19.646,17.85 z"
             style="fill:#00aad4;fill-opacity:1;fill-rule:nonzero;stroke:none"
             id="path118"
             inkscape:connector-curvature="0" /></g><g
           id="g120"
           transform="translate(631.4095,45.2649)"
           style="fill:#00aad4"><path
             d="m 0,0 c 13.264,0.629 24.5,-9.581 25.098,-22.804 0.597,-13.223 -9.671,-24.452 -22.935,-25.081 -13.264,-0.629 -24.5,9.58 -25.098,22.803 C -23.532,-11.858 -13.264,-0.629 0,0"
             style="fill:#00aad4;fill-opacity:1;fill-rule:nonzero;stroke:none"
             id="path122"
             inkscape:connector-curvature="0" /></g><g
           id="g124"
           transform="translate(680.2196,-21.7222)"
           style="fill:#00aad4"><path
             d="M 0,0 10.347,-9.401 28.066,7.092 47.712,-10.759 -60.873,-103.808 -87.723,-79.413 -4.809,36.961 14.837,19.111 Z"
             style="fill:#00aad4;fill-opacity:1;fill-rule:nonzero;stroke:none"
             id="path126"
             inkscape:connector-curvature="0" /></g><g
           id="g128"
           transform="translate(824.8002,220.8105)"
           style="fill:#00aad4"><path
             d="M 0,0 -10.347,9.401 -28.066,-7.092 -47.712,10.759 60.873,103.808 87.723,79.413 4.809,-36.961 l -19.646,17.85 z"
             style="fill:none;fill-opacity:1;fill-rule:nonzero;stroke:#be9a22;stroke-width:2.19179042;stroke-miterlimit:4;stroke-dasharray:none;stroke-opacity:1"
             id="path130"
             inkscape:connector-curvature="0" /></g><g
           id="g132"
           transform="translate(918.4711,359.156)"
           style="fill:#00aad4"><path
             d="m 0,0 c 13.264,0.629 24.5,-9.58 25.098,-22.804 0.597,-13.223 -9.671,-24.452 -22.935,-25.081 -13.264,-0.629 -24.5,9.581 -25.098,22.804 C -23.532,-11.858 -13.264,-0.629 0,0"
             style="fill:#37c837;fill-opacity:1;fill-rule:nonzero;stroke:none"
             id="path134"
             inkscape:connector-curvature="0" /></g><g
           id="g136"
           transform="translate(967.2811,292.1691)"
           style="fill:#00aad4"><path
             d="M 0,0 10.347,-9.401 28.066,7.092 47.712,-10.759 -60.873,-103.808 -87.723,-79.413 -4.809,36.961 14.837,19.111 Z"
             style="fill:#008033;fill-opacity:1;fill-rule:nonzero;stroke:none"
             id="path138"
             inkscape:connector-curvature="0" /></g><g
           id="g140"
           transform="translate(873.6102,153.8236)"
           style="fill:#00aad4"><path
             d="m 0,0 c -13.264,-0.629 -24.5,9.58 -25.098,22.803 -0.597,13.224 9.671,24.453 22.935,25.082 13.264,0.629 24.5,-9.581 25.098,-22.804 C 23.532,11.858 13.264,0.629 0,0"
             style="fill:#00ccff;fill-opacity:1;fill-rule:nonzero;stroke:none"
             id="path142"
             inkscape:connector-curvature="0" /></g><g
           id="g144"
           transform="translate(930.0619,125.6109)"
           style="fill:#00aad4"><path
             d="M 0,0 -10.347,9.401 -28.066,-7.092 -47.712,10.759 60.873,103.808 87.723,79.413 4.809,-36.961 l -19.646,17.85 z"
             style="fill:#00aad4;fill-opacity:1;fill-rule:nonzero;stroke:none"
             id="path146"
             inkscape:connector-curvature="0" /></g><g
           id="g148"
           transform="translate(1023.7328,263.9564)"
           style="fill:#00aad4"><path
             d="m 0,0 c 13.264,0.629 24.5,-9.58 25.098,-22.804 0.597,-13.223 -9.671,-24.452 -22.935,-25.081 -13.264,-0.629 -24.5,9.58 -25.098,22.804 C -23.532,-11.858 -13.264,-0.629 0,0"
             style="fill:#d5ffd5;fill-opacity:1;fill-rule:nonzero;stroke:none"
             id="path150"
             inkscape:connector-curvature="0" /></g><g
           id="g152"
           transform="translate(1072.3168,196.7224)"
           style="fill:#00aad4"><path
             d="M 0,0 10.347,-9.401 28.066,7.092 47.712,-10.759 -60.873,-103.808 -87.723,-79.413 -4.809,36.961 14.837,19.111 Z"
             style="fill:#8800aa;fill-opacity:1;fill-rule:nonzero;stroke:none"
             id="path154"
             inkscape:connector-curvature="0" /></g><g
           id="g156"
           transform="translate(978.6459,58.3769)"
           style="fill:#00aad4"><path
             d="m 0,0 c -13.264,-0.629 -24.5,9.581 -25.098,22.804 -0.597,13.223 9.671,24.452 22.935,25.081 13.264,0.629 24.5,-9.58 25.098,-22.803 C 23.532,11.858 13.264,0.629 0,0"
             style="fill:#00aad4;fill-opacity:1;fill-rule:nonzero;stroke:none"
             id="path158"
             inkscape:connector-curvature="0" /></g><g
           id="g160"
           transform="translate(681.3822,63.9884)"
           style="fill:#00aad4"><path
             d="M 0,0 -10.347,9.401 -28.066,-7.092 -47.712,10.759 60.873,103.808 87.723,79.413 4.809,-36.961 l -19.646,17.85 z"
             style="fill:#a02c2c;fill-opacity:1;fill-rule:nonzero;stroke:none"
             id="path162"
             inkscape:connector-curvature="0" /></g><g
           id="g164"
           transform="translate(775.0531,202.3338)"
           style="fill:#00aad4"><path
             d="m 0,0 c 13.264,0.629 24.5,-9.58 25.098,-22.803 0.597,-13.224 -9.671,-24.453 -22.935,-25.082 -13.264,-0.629 -24.5,9.581 -25.098,22.804 C -23.532,-11.858 -13.264,-0.629 0,0"
             style="fill:#00aad4;fill-opacity:1;fill-rule:nonzero;stroke:none"
             id="path166"
             inkscape:connector-curvature="0" /></g><g
           id="g168"
           transform="translate(823.8632,135.3469)"
           style="fill:#00aad4"><path
             d="M 0,0 10.347,-9.401 28.066,7.092 47.712,-10.759 -60.873,-103.808 -87.723,-79.413 -4.809,36.961 14.837,19.111 Z"
             style="fill:#7f2aff;fill-opacity:1;fill-rule:nonzero;stroke:none"
             id="path170"
             inkscape:connector-curvature="0" /></g><g
           id="g172"
           transform="translate(730.1923,-2.9986)"
           style="fill:#00aad4"><path
             d="m 0,0 c -13.264,-0.629 -24.5,9.58 -25.098,22.804 -0.597,13.223 9.671,24.452 22.935,25.081 13.264,0.629 24.5,-9.581 25.098,-22.804 C 23.532,11.858 13.264,0.629 0,0"
             style="fill:#00aad4;fill-opacity:1;fill-rule:nonzero;stroke:none"
             id="path174"
             inkscape:connector-curvature="0" /></g><g
           id="g176"
           transform="translate(786.6439,-31.2112)"
           style="fill:#00aad4"><path
             d="M 0,0 -10.347,9.401 -28.066,-7.092 -47.712,10.759 60.873,103.808 87.723,79.413 4.809,-36.961 l -19.646,17.85 z"
             style="fill:#483e37;fill-opacity:1;fill-rule:nonzero;stroke:none"
             id="path178"
             inkscape:connector-curvature="0" /></g><g
           id="g180"
           transform="translate(880.3148,107.1343)"
           style="fill:#00aad4"><path
             d="m 0,0 c 13.264,0.629 24.5,-9.58 25.098,-22.804 0.597,-13.223 -9.671,-24.452 -22.935,-25.081 -13.264,-0.629 -24.5,9.581 -25.098,22.804 C -23.532,-11.858 -13.264,-0.629 0,0"
             style="fill:#aa0044;fill-opacity:1;fill-rule:nonzero;stroke:none"
             id="path182"
             inkscape:connector-curvature="0" /></g><g
           id="g184"
           transform="translate(928.8988,39.9004)"
           style="fill:#00aad4"><path
             d="M 0,0 10.347,-9.401 28.066,7.092 47.712,-10.759 -60.873,-103.808 -87.723,-79.413 -4.809,36.961 14.837,19.111 Z"
             style="fill:#00aad4;fill-opacity:1;fill-rule:nonzero;stroke:none"
             id="path186"
             inkscape:connector-curvature="0" /></g><g
           id="g188"
           transform="translate(1034.8715,29.9175)"
           style="fill:#00aad4"><path
             d="M 0,0 -10.347,9.401 -28.066,-7.092 -47.712,10.759 60.873,103.808 87.723,79.413 4.809,-36.961 l -19.646,17.85 z"
             style="fill:#ffdd55;fill-opacity:1;fill-rule:nonzero;stroke:none"
             id="path190"
             inkscape:connector-curvature="0" /></g><g
           id="g192"
           transform="translate(1128.5424,168.2629)"
           style="fill:#00aad4"><path
             d="m 0,0 c 13.264,0.629 24.5,-9.581 25.098,-22.804 0.597,-13.223 -9.671,-24.452 -22.935,-25.081 -13.264,-0.629 -24.5,9.58 -25.098,22.804 C -23.532,-11.858 -13.264,-0.629 0,0"
             style="fill:#ff2a7f;fill-opacity:1;fill-rule:nonzero;stroke:none"
             id="path194"
             inkscape:connector-curvature="0" /></g><g
           id="g196"
           transform="translate(1177.3524,101.2759)"
           style="fill:#00aad4"><path
             d="M 0,0 10.347,-9.401 28.066,7.092 47.712,-10.759 -60.873,-103.808 -87.723,-79.413 -4.809,36.961 14.837,19.111 Z"
             style="fill:#00aad4;fill-opacity:1;fill-rule:nonzero;stroke:none"
             id="path198"
             inkscape:connector-curvature="0" /></g><g
           id="g200"
           transform="translate(1083.6815,-37.0696)"
           style="fill:#00aad4"><path
             d="m 0,0 c -13.264,-0.629 -24.5,9.581 -25.098,22.804 -0.597,13.223 9.671,24.452 22.935,25.081 13.264,0.629 24.5,-9.58 25.098,-22.804 C 23.532,11.858 13.264,0.629 0,0"
             style="fill:#00aad4;fill-opacity:1;fill-rule:nonzero;stroke:none"
             id="path202"
             inkscape:connector-curvature="0" /></g><g
           id="g204"
           transform="translate(1140.1332,-65.2821)"
           style="fill:#00aad4"><path
             d="M 0,0 -10.347,9.401 -28.066,-7.092 -47.712,10.759 60.873,103.808 87.723,79.413 4.809,-36.961 l -19.646,17.85 z"
             style="fill:#00aad4;fill-opacity:1;fill-rule:nonzero;stroke:none"
             id="path206"
             inkscape:connector-curvature="0" /></g><g
           id="g208"
           transform="translate(985.1249,11.4408)"
           style="fill:#00aad4"><path
             d="m 0,0 c 13.264,0.629 24.5,-9.58 25.098,-22.804 0.597,-13.223 -9.671,-24.452 -22.935,-25.081 -13.264,-0.629 -24.5,9.58 -25.098,22.804 C -23.532,-11.858 -13.264,-0.629 0,0"
             style="fill:#00aad4;fill-opacity:1;fill-rule:nonzero;stroke:none"
             id="path210"
             inkscape:connector-curvature="0" /></g><g
           id="g212"
           transform="translate(795.2972,821.9249)"
           style="fill:#00aad4"><path
             d="M 0,0 -10.347,9.401 -28.066,-7.092 -47.712,10.759 60.873,103.808 87.723,79.413 4.809,-36.961 l -19.646,17.85 z"
             style="fill:#00aad4;fill-opacity:1;fill-rule:nonzero;stroke:none"
             id="path214"
             inkscape:connector-curvature="0" /></g><g
           id="g216"
           transform="translate(937.5526,893.0364)"
           style="fill:#00aad4"><path
             d="M 0,0 10.347,-9.401 28.066,7.092 47.712,-10.759 -60.873,-103.808 -87.723,-79.413 -4.809,36.961 14.837,19.111 Z"
             style="fill:#00aad4;fill-opacity:1;fill-rule:nonzero;stroke:none"
             id="path218"
             inkscape:connector-curvature="0" /></g><g
           id="g220"
           transform="translate(843.8812,754.6909)"
           style="fill:#00aad4"><path
             d="m 0,0 c -13.264,-0.629 -24.5,9.581 -25.098,22.804 -0.597,13.223 9.671,24.452 22.935,25.081 13.264,0.629 24.5,-9.58 25.098,-22.804 C 23.532,11.858 13.264,0.629 0,0"
             style="fill:#00aad4;fill-opacity:1;fill-rule:nonzero;stroke:none"
             id="path222"
             inkscape:connector-curvature="0" /></g><g
           id="g224"
           transform="translate(689.099,831.6609)"
           style="fill:#00aad4"><path
             d="M 0,0 10.347,-9.401 28.066,7.092 47.712,-10.759 -60.873,-103.808 -87.723,-79.413 -4.809,36.961 14.837,19.111 Z"
             style="fill:#00aad4;fill-opacity:1;fill-rule:nonzero;stroke:none"
             id="path226"
             inkscape:connector-curvature="0" /></g><g
           id="g228"
           transform="translate(595.4276,693.3154)"
           style="fill:#00aad4"><path
             d="m 0,0 c -13.264,-0.629 -24.5,9.58 -25.098,22.803 -0.597,13.224 9.671,24.453 22.935,25.082 13.264,0.629 24.5,-9.581 25.098,-22.804 C 23.532,11.858 13.264,0.629 0,0"
             style="fill:#00aad4;fill-opacity:1;fill-rule:nonzero;stroke:none"
             id="path230"
             inkscape:connector-curvature="0" /></g><g
           id="g232"
           transform="translate(651.8793,665.1028)"
           style="fill:#00aad4"><path
             d="M 0,0 -10.347,9.401 -28.066,-7.092 -47.712,10.759 60.873,103.808 87.723,79.413 4.809,-36.961 l -19.646,17.85 z"
             style="fill:none;fill-opacity:1;fill-rule:nonzero;stroke:#365a1f;stroke-width:6.57537126;stroke-miterlimit:4;stroke-dasharray:none;stroke-opacity:1"
             id="path234"
             inkscape:connector-curvature="0" /></g><g
           id="g236"
           transform="translate(745.5502,803.4482)"
           style="fill:#00aad4"><path
             d="m 0,0 c 13.264,0.629 24.5,-9.58 25.098,-22.804 0.597,-13.223 -9.671,-24.452 -22.935,-25.081 -13.264,-0.629 -24.5,9.581 -25.098,22.804 C -23.532,-11.858 -13.264,-0.629 0,0"
             style="fill:#00aad4;fill-opacity:1;fill-rule:nonzero;stroke:none"
             id="path238"
             inkscape:connector-curvature="0" /></g><g
           id="g240"
           transform="translate(794.1346,736.2142)"
           style="fill:#00aad4"><path
             d="M 0,0 10.347,-9.401 28.066,7.092 47.712,-10.759 -60.873,-103.808 -87.723,-79.413 -4.809,36.961 14.837,19.111 Z"
             style="fill:#5d536c;fill-opacity:1;fill-rule:nonzero;stroke:none"
             id="path242"
             inkscape:connector-curvature="0" /></g><g
           id="g244"
           transform="translate(700.4633,597.8688)"
           style="fill:#00aad4"><path
             d="m 0,0 c -13.264,-0.629 -24.5,9.581 -25.098,22.804 -0.597,13.223 9.671,24.452 22.935,25.081 13.264,0.629 24.5,-9.58 25.098,-22.803 C 23.532,11.858 13.264,0.629 0,0"
             style="fill:#00aad4;fill-opacity:1;fill-rule:nonzero;stroke:none"
             id="path246"
             inkscape:connector-curvature="0" /></g><g
           id="g248"
           transform="translate(900.1068,726.2314)"
           style="fill:#00aad4"><path
             d="M 0,0 -10.347,9.401 -28.066,-7.092 -47.712,10.759 60.873,103.808 87.723,79.413 4.809,-36.961 l -19.646,17.85 z"
             style="fill:#6c535d;fill-opacity:1;fill-rule:nonzero;stroke:none"
             id="path250"
             inkscape:connector-curvature="0" /></g><g
           id="g252"
           transform="translate(993.7782,864.5769)"
           style="fill:#00aad4"><path
             d="m 0,0 c 13.264,0.629 24.5,-9.581 25.098,-22.804 0.597,-13.223 -9.671,-24.452 -22.935,-25.081 -13.264,-0.629 -24.5,9.58 -25.098,22.804 C -23.532,-11.858 -13.264,-0.629 0,0"
             style="fill:#00aad4;fill-opacity:1;fill-rule:nonzero;stroke:none"
             id="path254"
             inkscape:connector-curvature="0" /></g><g
           id="g256"
           transform="translate(1042.5883,797.5898)"
           style="fill:#00aad4"><path
             d="M 0,0 10.347,-9.401 28.066,7.092 47.712,-10.759 -60.873,-103.808 -87.723,-79.413 -4.809,36.961 14.837,19.111 Z"
             style="fill:none;fill-opacity:1;fill-rule:nonzero;stroke:#ffd700;stroke-opacity:1;stroke-width:10.9589521;stroke-miterlimit:4;stroke-dasharray:none"
             id="path258"
             inkscape:connector-curvature="0" /></g><g
           id="g260"
           transform="translate(948.9169,659.2444)"
           style="fill:#00aad4"><path
             d="m 0,0 c -13.264,-0.629 -24.5,9.58 -25.098,22.804 -0.597,13.223 9.671,24.452 22.935,25.081 13.264,0.629 24.5,-9.58 25.098,-22.804 C 23.532,11.858 13.264,0.629 0,0"
             style="fill:#00aad4;fill-opacity:1;fill-rule:nonzero;stroke:none"
             id="path262"
             inkscape:connector-curvature="0" /></g><g
           id="g264"
           transform="translate(1005.3685,631.0319)"
           style="fill:#00aad4"><path
             d="M 0,0 -10.347,9.401 -28.066,-7.092 -47.712,10.759 60.873,103.808 87.723,79.413 4.809,-36.961 l -19.646,17.85 z"
             style="fill:#00aad4;fill-opacity:1;fill-rule:nonzero;stroke:none"
             id="path266"
             inkscape:connector-curvature="0" /></g><g
           id="g268"
           transform="translate(1099.0394,769.3773)"
           style="fill:#00aad4"><path
             d="m 0,0 c 13.264,0.629 24.5,-9.581 25.098,-22.804 0.597,-13.223 -9.671,-24.452 -22.935,-25.081 -13.264,-0.629 -24.5,9.58 -25.098,22.803 C -23.532,-11.858 -13.264,-0.629 0,0"
             style="fill:#782121;fill-opacity:1;fill-rule:nonzero;stroke:none"
             id="path270"
             inkscape:connector-curvature="0" /></g><g
           id="g272"
           transform="translate(1147.6239,702.1433)"
           style="fill:#00aad4"><path
             d="M 0,0 10.347,-9.401 28.066,7.092 47.712,-10.759 -60.873,-103.808 -87.723,-79.413 -4.809,36.961 14.837,19.111 Z"
             style="fill:none;fill-opacity:1;fill-rule:nonzero;stroke:#365a1f;stroke-opacity:1;stroke-width:8.76716168;stroke-miterlimit:4;stroke-dasharray:none"
             id="path274"
             inkscape:connector-curvature="0" /></g><g
           id="g276"
           transform="translate(1053.9525,563.7979)"
           style="fill:#00aad4"><path
             d="m 0,0 c -13.264,-0.629 -24.5,9.58 -25.098,22.804 -0.597,13.223 9.671,24.452 22.935,25.081 13.264,0.629 24.5,-9.581 25.098,-22.804 C 23.532,11.858 13.264,0.629 0,0"
             style="fill:#d5ffd5;fill-opacity:1;fill-rule:nonzero;stroke:none"
             id="path278"
             inkscape:connector-curvature="0" /></g><g
           id="g280"
           transform="translate(756.6893,569.4093)"
           style="fill:#00aad4"><path
             d="M 0,0 -10.347,9.401 -28.066,-7.092 -47.712,10.759 60.873,103.808 87.723,79.413 4.809,-36.961 l -19.646,17.85 z"
             style="fill:none;fill-opacity:1;fill-rule:nonzero;stroke:#561f5a;stroke-opacity:1;stroke-width:4.38358084;stroke-miterlimit:4;stroke-dasharray:none"
             id="path282"
             inkscape:connector-curvature="0" /></g><g
           id="g284"
           transform="translate(850.3602,707.7548)"
           style="fill:#00aad4"><path
             d="m 0,0 c 13.264,0.629 24.5,-9.581 25.098,-22.804 0.597,-13.223 -9.671,-24.452 -22.935,-25.081 -13.264,-0.629 -24.5,9.58 -25.098,22.804 C -23.532,-11.858 -13.264,-0.629 0,0"
             style="fill:#00aad4;fill-opacity:1;fill-rule:nonzero;stroke:none"
             id="path286"
             inkscape:connector-curvature="0" /></g><g
           id="g288"
           transform="translate(899.1703,640.7677)"
           style="fill:#00aad4"><path
             d="M 0,0 10.347,-9.401 28.066,7.092 47.712,-10.759 -60.873,-103.808 -87.723,-79.413 -4.809,36.961 14.837,19.111 Z"
             style="fill:#d40055;fill-opacity:1;fill-rule:nonzero;stroke:none"
             id="path290"
             inkscape:connector-curvature="0" /></g><g
           id="g292"
           transform="translate(805.4989,502.4222)"
           style="fill:#00aad4"><path
             d="m 0,0 c -13.264,-0.629 -24.5,9.581 -25.098,22.804 -0.597,13.223 9.671,24.452 22.935,25.081 13.264,0.629 24.5,-9.58 25.098,-22.804 C 23.532,11.858 13.264,0.629 0,0"
             style="fill:#00aad4;fill-opacity:1;fill-rule:nonzero;stroke:none"
             id="path294"
             inkscape:connector-curvature="0" /></g><g
           id="g296"
           transform="translate(861.9506,474.2097)"
           style="fill:#00aad4"><path
             d="M 0,0 -10.347,9.401 -28.066,-7.092 -47.712,10.759 60.873,103.808 87.723,79.413 4.809,-36.961 l -19.646,17.85 z"
             style="fill:#d400b6;fill-opacity:1;fill-rule:nonzero;stroke:none"
             id="path298"
             inkscape:connector-curvature="0" /></g><g
           id="g300"
           transform="translate(955.6219,612.5552)"
           style="fill:#00aad4"><path
             d="m 0,0 c 13.264,0.629 24.5,-9.581 25.098,-22.804 0.597,-13.223 -9.671,-24.452 -22.935,-25.081 -13.264,-0.629 -24.5,9.58 -25.098,22.804 C -23.532,-11.858 -13.264,-0.629 0,0"
             style="fill:#00ffff;fill-opacity:1;fill-rule:nonzero;stroke:none"
             id="path302"
             inkscape:connector-curvature="0" /></g><g
           id="g304"
           transform="translate(1004.2059,545.3212)"
           style="fill:#00aad4"><path
             d="M 0,0 10.347,-9.401 28.066,7.092 47.712,-10.759 -60.873,-103.808 -87.723,-79.413 -4.809,36.961 14.837,19.111 Z"
             style="fill:#dedbe3;fill-opacity:1;fill-rule:nonzero;stroke:none"
             id="path306"
             inkscape:connector-curvature="0" /></g><g
           id="g308"
           transform="translate(910.535,406.9757)"
           style="fill:#00aad4"><path
             d="m 0,0 c -13.264,-0.629 -24.5,9.58 -25.098,22.804 -0.597,13.223 9.671,24.452 22.934,25.081 13.265,0.629 24.501,-9.58 25.099,-22.804 C 23.532,11.858 13.264,0.629 0,0"
             style="fill:#d4aa00;fill-opacity:1;fill-rule:nonzero;stroke:none"
             id="path310"
             inkscape:connector-curvature="0" /></g><g
           id="g312"
           transform="translate(1092.5609,816.3135)"
           style="fill:#00aad4"><path
             d="m 0,0 c -13.264,-0.629 -24.5,9.58 -25.098,22.804 -0.597,13.223 9.671,24.452 22.935,25.081 13.264,0.629 24.5,-9.58 25.098,-22.804 C 23.532,11.858 13.264,0.629 0,0"
             style="fill:#00aad4;fill-opacity:1;fill-rule:nonzero;stroke:none"
             id="path314"
             inkscape:connector-curvature="0" /></g><g
           id="g316"
           transform="translate(1149.0126,788.101)"
           style="fill:#00aad4"><path
             d="M 0,0 -10.347,9.401 -28.066,-7.092 -47.712,10.759 60.873,103.808 87.723,79.413 4.809,-36.961 l -19.646,17.85 z"
             style="fill:#483737;fill-opacity:1;fill-rule:nonzero;stroke:none"
             id="path318"
             inkscape:connector-curvature="0" /></g><g
           id="g320"
           transform="translate(1197.5966,720.8669)"
           style="fill:#00aad4"><path
             d="m 0,0 c -13.264,-0.629 -24.5,9.58 -25.098,22.804 -0.597,13.223 9.671,24.452 22.935,25.081 13.264,0.629 24.5,-9.581 25.098,-22.804 C 23.532,11.858 13.264,0.629 0,0"
             style="fill:#00aad4;fill-opacity:1;fill-rule:nonzero;stroke:none"
             id="path322"
             inkscape:connector-curvature="0" /></g><g
           id="g324"
           transform="translate(1111.4159,534.214)"
           style="fill:#00aad4"><path
             d="M 0,0 -10.347,9.401 -28.066,-7.092 -47.712,10.759 60.873,103.808 87.723,79.413 4.809,-36.961 l -19.646,17.85 z"
             style="fill:#e9afaf;fill-opacity:1;fill-rule:nonzero;stroke:none"
             id="path326"
             inkscape:connector-curvature="0" /></g><g
           id="g328"
           transform="translate(1205.0868,672.5594)"
           style="fill:#00aad4"><path
             d="m 0,0 c 13.264,0.629 24.5,-9.581 25.098,-22.804 0.597,-13.223 -9.671,-24.452 -22.935,-25.081 -13.264,-0.629 -24.5,9.58 -25.098,22.804 C -23.532,-11.858 -13.264,-0.629 0,0"
             style="fill:#00aad4;fill-opacity:1;fill-rule:nonzero;stroke:none"
             id="path330"
             inkscape:connector-curvature="0" /></g><g
           id="g332"
           transform="translate(1253.8969,605.5724)"
           style="fill:#00aad4"><path
             d="M 0,0 10.347,-9.401 28.066,7.092 47.712,-10.759 -60.873,-103.808 -87.723,-79.413 -4.809,36.961 14.837,19.111 Z"
             style="fill:#00aad4;fill-opacity:1;fill-rule:nonzero;stroke:none"
             id="path334"
             inkscape:connector-curvature="0" /></g><g
           id="g336"
           transform="translate(1160.2255,467.2269)"
           style="fill:#00aad4"><path
             d="m 0,0 c -13.264,-0.629 -24.5,9.58 -25.098,22.804 -0.597,13.223 9.671,24.452 22.935,25.081 13.264,0.629 24.5,-9.58 25.098,-22.804 C 23.532,11.858 13.264,0.629 0,0"
             style="fill:#00aad4;fill-opacity:1;fill-rule:nonzero;stroke:none"
             id="path338"
             inkscape:connector-curvature="0" /></g><g
           id="g340"
           transform="translate(1216.6771,439.0144)"
           style="fill:#00aad4"><path
             d="M 0,0 -10.347,9.401 -28.066,-7.092 -47.712,10.759 60.873,103.808 87.723,79.413 4.809,-36.961 l -19.646,17.85 z"
             style="fill:#00aad4;fill-opacity:1;fill-rule:nonzero;stroke:none"
             id="path342"
             inkscape:connector-curvature="0" /></g><g
           id="g344"
           transform="translate(967.9979,377.3918)"
           style="fill:#00aad4"><path
             d="M 0,0 -10.347,9.401 -28.066,-7.092 -47.712,10.759 60.873,103.808 87.723,79.413 4.809,-36.961 l -19.646,17.85 z"
             style="fill:#00aad4;fill-opacity:1;fill-rule:nonzero;stroke:none"
             id="path346"
             inkscape:connector-curvature="0" /></g><g
           id="g348"
           transform="translate(1061.6688,515.7373)"
           style="fill:#00aad4"><path
             d="m 0,0 c 13.264,0.629 24.5,-9.58 25.098,-22.804 0.597,-13.223 -9.671,-24.452 -22.935,-25.081 -13.264,-0.629 -24.5,9.58 -25.098,22.804 C -23.532,-11.858 -13.264,-0.629 0,0"
             style="fill:none;fill-opacity:1;fill-rule:nonzero;stroke:#e00000;stroke-opacity:1;stroke-width:2.19179042;stroke-miterlimit:4;stroke-dasharray:none"
             id="path350"
             inkscape:connector-curvature="0" /></g><g
           id="g352"
           transform="translate(1110.4789,448.7502)"
           style="fill:#00aad4"><path
             d="M 0,0 10.347,-9.401 28.066,7.092 47.712,-10.759 -60.873,-103.808 -87.723,-79.413 -4.809,36.961 14.837,19.111 Z"
             style="fill:#000080;fill-opacity:1;fill-rule:nonzero;stroke:none"
             id="path354"
             inkscape:connector-curvature="0" /></g><g
           id="g356"
           transform="translate(1016.808,310.4048)"
           style="fill:#00aad4"><path
             d="m 0,0 c -13.264,-0.629 -24.5,9.581 -25.098,22.804 -0.597,13.223 9.671,24.452 22.935,25.081 13.264,0.629 24.5,-9.58 25.098,-22.804 C 23.532,11.858 13.264,0.629 0,0"
             style="fill:#441650;fill-opacity:1;fill-rule:nonzero;stroke:none"
             id="path358"
             inkscape:connector-curvature="0" /></g><g
           id="g360"
           transform="translate(1073.2592,282.1923)"
           style="fill:#00aad4"><path
             d="M 0,0 -10.347,9.401 -28.066,-7.092 -47.712,10.759 60.873,103.808 87.723,79.413 4.809,-36.961 l -19.646,17.85 z"
             style="fill:#00aad4;fill-opacity:1;fill-rule:nonzero;stroke:none"
             id="path362"
             inkscape:connector-curvature="0" /></g><g
           id="g364"
           transform="translate(1166.9305,420.5377)"
           style="fill:#00aad4"><path
             d="m 0,0 c 13.264,0.629 24.5,-9.581 25.098,-22.804 0.597,-13.223 -9.671,-24.452 -22.935,-25.081 -13.264,-0.629 -24.5,9.58 -25.098,22.804 C -23.532,-11.858 -13.264,-0.629 0,0"
             style="fill:#00aad4;fill-opacity:1;fill-rule:nonzero;stroke:none"
             id="path366"
             inkscape:connector-curvature="0" /></g><g
           id="g368"
           transform="translate(1215.5145,353.3037)"
           style="fill:#00aad4"><path
             d="M 0,0 10.347,-9.401 28.066,7.092 47.712,-10.759 -60.873,-103.808 -87.723,-79.413 -4.809,36.961 14.837,19.111 Z"
             style="fill:#66ff00;fill-opacity:1;fill-rule:nonzero;stroke:none"
             id="path370"
             inkscape:connector-curvature="0" /></g><g
           id="g372"
           transform="translate(1121.8436,214.9582)"
           style="fill:#00aad4"><path
             d="m 0,0 c -13.264,-0.629 -24.5,9.58 -25.098,22.804 -0.597,13.223 9.671,24.452 22.935,25.081 13.264,0.629 24.5,-9.58 25.098,-22.804 C 23.532,11.858 13.264,0.629 0,0"
             style="fill:none;fill-opacity:1;fill-rule:nonzero;stroke:#ff2300;stroke-opacity:1;stroke-width:13.15074252;stroke-miterlimit:4;stroke-dasharray:none"
             id="path374"
             inkscape:connector-curvature="0" /></g><g
           id="g376"
           transform="translate(1178.0692,186.4986)"
           style="fill:#00aad4"><path
             d="M 0,0 -10.347,9.401 -28.066,-7.092 -47.712,10.759 60.873,103.808 87.723,79.413 4.809,-36.961 l -19.646,17.85 z"
             style="fill:#00aad4;fill-opacity:1;fill-rule:nonzero;stroke:none"
             id="path378"
             inkscape:connector-curvature="0" /></g></g></g></g></svg>